<?xml version="1.0" encoding="UTF-8" standalone="no"?>
<!-- Created with Inkscape (http://www.inkscape.org/) -->

<svg
   width="277.9585"
   height="275.93185"
   viewBox="0 0 73.543185 73.006969"
   version="1.1"
   id="svg1"
   xml:space="preserve"
   xmlns:xlink="http://www.w3.org/1999/xlink"
   xmlns="http://www.w3.org/2000/svg"
   xmlns:svg="http://www.w3.org/2000/svg"><defs
     id="defs1" /><g
     id="layer1"
     transform="translate(-114.11749,-114.99439)"><g
       id="g1"
       transform="matrix(0.26458333,0,0,0.26458333,21.718965,60.466311)"><g
         fill="#ffffff"
         id="g888"
         transform="matrix(0.5,0,0,0.5,-55.639145,9.7368497)"><g
           id="Stripes3" /><g
           transform="translate(1087.6823,672.70703)"
           id="g886"><path
             transform="matrix(0.047,0,0,0.047,0,-233)"
             id="Star"
             d="M 0,-1000 -587.78525,809.01699 951.05652,-309.01699 H -951.05652 L 587.78525,809.01699 Z" /><g
             id="Stars4"><use
               xlink:href="#Star"
               transform="rotate(27.692308)"
               id="use873"
               x="0"
               y="0"
               width="100%"
               height="100%" /><use
               xlink:href="#Star"
               transform="rotate(55.384615)"
               id="use875"
               x="0"
               y="0"
               width="100%"
               height="100%" /><use
               xlink:href="#Star"
               transform="rotate(83.076923)"
               id="use877"
               x="0"
               y="0"
               width="100%"
               height="100%" /><use
               xlink:href="#Star"
               transform="rotate(110.76923)"
               id="use879"
               x="0"
               y="0"
               width="100%"
               height="100%" /></g><use
             xlink:href="#Stars4"
             transform="rotate(110.76923)"
             id="use882"
             x="0"
             y="0"
             width="100%"
             height="100%" /><use
             xlink:href="#Stars4"
             transform="rotate(-138.46154)"
             id="use884"
             x="0"
             y="0"
             width="100%"
             height="100%" /></g></g></g></g></svg>
